<svg xmlns="http://www.w3.org/2000/svg" viewBox="0 0 64 64" role="img" aria-label="彩研所">
  <defs>
    <radialGradient id="bg" cx="34%" cy="24%" r="78%">
      <stop offset="0" stop-color="#1e293b"/>
      <stop offset="0.62" stop-color="#0f172a"/>
      <stop offset="1" stop-color="#020617"/>
    </radialGradient>
    <linearGradient id="ring" x1="10" y1="8" x2="54" y2="58">
      <stop offset="0" stop-color="#38bdf8"/>
      <stop offset="0.48" stop-color="#60a5fa"/>
      <stop offset="1" stop-color="#fbbf24"/>
    </linearGradient>
    <filter id="shadow" x="-20%" y="-20%" width="140%" height="140%">
      <feDropShadow dx="0" dy="3" stdDeviation="2.2" flood-color="#000000" flood-opacity="0.28"/>
    </filter>
  </defs>

  <rect width="64" height="64" rx="16" fill="url(#bg)"/>
  <circle cx="32" cy="32" r="25" fill="none" stroke="url(#ring)" stroke-width="4"/>
  <path d="M17 43c7-9 14-8 21-20 2-4 5-6 9-7" fill="none" stroke="#e2e8f0" stroke-width="3.2" stroke-linecap="round"/>
  <path d="M18 45h29" stroke="#334155" stroke-width="2.5" stroke-linecap="round" opacity=".75"/>

  <g filter="url(#shadow)">
    <circle cx="20" cy="24" r="8.2" fill="#ef4444"/>
    <circle cx="20" cy="24" r="4.7" fill="#f87171"/>
    <circle cx="34" cy="37" r="8.2" fill="#22c55e"/>
    <circle cx="34" cy="37" r="4.7" fill="#86efac"/>
    <circle cx="47" cy="23" r="8.2" fill="#3b82f6"/>
    <circle cx="47" cy="23" r="4.7" fill="#93c5fd"/>
  </g>

  <circle cx="20" cy="24" r="2" fill="#ffffff" opacity=".9"/>
  <circle cx="34" cy="37" r="2" fill="#ffffff" opacity=".9"/>
  <circle cx="47" cy="23" r="2" fill="#ffffff" opacity=".9"/>
</svg>
