<svg xmlns="http://www.w3.org/2000/svg" viewBox="0 0 360 96" role="img" aria-label="彩研所">
  <defs>
    <radialGradient id="markBg" cx="34%" cy="24%" r="78%">
      <stop offset="0" stop-color="#1e293b"/>
      <stop offset="0.62" stop-color="#0f172a"/>
      <stop offset="1" stop-color="#020617"/>
    </radialGradient>
    <linearGradient id="markRing" x1="8" y1="8" x2="88" y2="88">
      <stop offset="0" stop-color="#38bdf8"/>
      <stop offset="0.48" stop-color="#60a5fa"/>
      <stop offset="1" stop-color="#fbbf24"/>
    </linearGradient>
    <linearGradient id="word" x1="112" y1="24" x2="288" y2="72">
      <stop offset="0" stop-color="#f8fafc"/>
      <stop offset="0.58" stop-color="#e2e8f0"/>
      <stop offset="1" stop-color="#93c5fd"/>
    </linearGradient>
    <filter id="softShadow" x="-20%" y="-20%" width="140%" height="140%">
      <feDropShadow dx="0" dy="6" stdDeviation="5" flood-color="#020617" flood-opacity="0.35"/>
    </filter>
  </defs>

  <g filter="url(#softShadow)">
    <rect x="8" y="8" width="80" height="80" rx="22" fill="url(#markBg)"/>
    <circle cx="48" cy="48" r="31" fill="none" stroke="url(#markRing)" stroke-width="5"/>
    <path d="M26 62c10-13 21-11 31-29 4-6 8-9 14-11" fill="none" stroke="#e2e8f0" stroke-width="4.2" stroke-linecap="round"/>
    <path d="M27 65h43" stroke="#334155" stroke-width="3" stroke-linecap="round" opacity=".78"/>

    <circle cx="31" cy="36" r="10" fill="#ef4444"/>
    <circle cx="31" cy="36" r="5.4" fill="#f87171"/>
    <circle cx="50" cy="54" r="10" fill="#22c55e"/>
    <circle cx="50" cy="54" r="5.4" fill="#86efac"/>
    <circle cx="69" cy="35" r="10" fill="#3b82f6"/>
    <circle cx="69" cy="35" r="5.4" fill="#93c5fd"/>
    <circle cx="31" cy="36" r="2.2" fill="#ffffff" opacity=".9"/>
    <circle cx="50" cy="54" r="2.2" fill="#ffffff" opacity=".9"/>
    <circle cx="69" cy="35" r="2.2" fill="#ffffff" opacity=".9"/>
  </g>

  <text x="110" y="52" fill="url(#word)" font-family="'Microsoft YaHei','PingFang SC','Noto Sans SC',Arial,sans-serif" font-size="34" font-weight="900" letter-spacing="1">彩研所</text>
  <text x="112" y="76" fill="#94a3b8" font-family="Arial,'Microsoft YaHei',sans-serif" font-size="13" font-weight="700" letter-spacing="2.5">MARK SIX ANALYTICS</text>
  <path d="M106 63h182" stroke="#38bdf8" stroke-width="1.4" stroke-linecap="round" opacity=".32"/>
</svg>
